<svg width="67" height="60" viewBox="0 0 67 60" fill="none" xmlns="http://www.w3.org/2000/svg">
<path d="M33.5438 59.1241C32.6028 59.1241 31.8146 58.8088 31.1791 58.1781C30.5437 57.5474 30.2248 56.7679 30.2226 55.8394C30.2226 55.4562 30.3056 55.0588 30.4717 54.6471C30.6378 54.2354 30.8869 53.8664 31.219 53.5401L46.5794 38.3485L44.1715 35.9672L28.8942 51.1588C28.562 51.4872 28.2022 51.7336 27.8148 51.8978C27.4273 52.062 27.0122 52.1442 26.5693 52.1442C25.6283 52.1442 24.8401 51.8299 24.2047 51.2015C23.5692 50.573 23.2504 49.7923 23.2482 48.8595C23.2482 48.312 23.3312 47.8599 23.4973 47.5029C23.6633 47.146 23.8847 46.8318 24.1615 46.5602L39.5219 31.3686L37.1971 29.0693L21.8367 44.1788C21.5046 44.5073 21.1448 44.7536 20.7573 44.9179C20.3698 45.0821 19.927 45.1642 19.4288 45.1642C18.5432 45.1642 17.7682 44.8358 17.104 44.1788C16.4398 43.5219 16.1077 42.7555 16.1077 41.8796C16.1077 41.4416 16.1907 41.031 16.3567 40.6478C16.5228 40.2646 16.7719 39.9088 17.104 39.5803L32.4644 24.3887L30.0566 22.0894L14.7792 37.281C14.5024 37.5548 14.1703 37.7737 13.7828 37.938C13.3954 38.1022 12.9249 38.1843 12.3713 38.1843C11.4303 38.1843 10.641 37.869 10.0034 37.2383C9.36569 36.6077 9.04797 35.8281 9.05018 34.8996C9.05018 34.4617 9.13321 34.0511 9.29927 33.6679C9.46533 33.2847 9.71441 32.9288 10.0465 32.6004L28.562 14.2883L41.0164 26.688C41.6253 27.2902 42.3449 27.7697 43.1752 28.1266C44.0055 28.4836 44.8358 28.661 45.666 28.6588C47.4373 28.6588 48.9872 28.0434 50.3157 26.8128C51.6441 25.5821 52.3084 24.0077 52.3084 22.0894C52.3084 21.323 52.17 20.5292 51.8932 19.708C51.6165 18.8869 51.1183 18.1204 50.3987 17.4088L35.5365 2.70987C36.4775 1.83396 37.5292 1.16388 38.6916 0.699649C39.854 0.235415 41.0164 0.00220352 42.1788 1.37434e-05C43.618 1.37434e-05 44.9465 0.233226 46.1642 0.699649C47.382 1.16607 48.489 1.89089 49.4854 2.8741L63.5173 16.834C64.5137 17.8194 65.2477 18.9142 65.7193 20.1186C66.1909 21.323 66.4256 22.719 66.4233 24.3066C66.4233 25.4015 66.1742 26.5106 65.6761 27.6339C65.1779 28.7573 64.4583 29.7832 63.5173 30.7117L35.8686 58.1387C35.4258 58.5766 35.0383 58.8504 34.7062 58.9599C34.3741 59.0693 33.9866 59.1241 33.5438 59.1241ZM5.06478 32.8467L2.90602 30.7117C1.96502 29.8358 1.24544 28.7956 0.747262 27.5912C0.249087 26.3869 0 25.1277 0 23.8139C0 22.3905 0.276764 21.0767 0.830292 19.8723C1.38382 18.6679 2.07573 17.6551 2.90602 16.834L16.938 2.8741C17.8236 1.99819 18.8753 1.29965 20.0931 0.778481C21.3108 0.257313 22.5009 -0.00217604 23.6633 1.37434e-05C25.1578 1.37434e-05 26.4863 0.205853 27.6487 0.617532C28.8111 1.02921 29.9459 1.7814 31.0529 2.8741L48.0739 19.708C48.406 20.0365 48.6551 20.3923 48.8212 20.7756C48.9872 21.1588 49.0702 21.5694 49.0702 22.0073C49.0702 22.8832 48.7381 23.6496 48.0739 24.3066C47.4097 24.9635 46.6347 25.292 45.7491 25.292C45.2509 25.292 44.8358 25.2241 44.5036 25.0883C44.1715 24.9526 43.8117 24.692 43.4243 24.3066L28.479 9.68979L5.06478 32.8467Z" fill="#213C51"/>
</svg>
