<svg width="51" height="58" viewBox="0 0 51 58" fill="none" xmlns="http://www.w3.org/2000/svg">
<path d="M24.9398 0.0508599C25.2923 -0.0169533 25.6562 -0.0169533 26.0086 0.0508599L48.749 4.57174C50.0224 4.82039 50.9434 5.93931 50.9434 7.22776C50.9434 8.51621 50.0224 9.63513 48.749 9.88378L40.028 11.6243V18.0779C40.028 26.0685 33.5129 32.5447 25.4742 32.5447C17.4355 32.5447 10.9204 26.0685 10.9204 18.0779V11.6243L5.46274 10.5393V17.897L7.24786 26.758C7.35019 27.2892 7.21375 27.843 6.87264 28.2612C6.53154 28.6793 6.00851 28.928 5.46274 28.928H1.82429C1.27852 28.928 0.766862 28.6906 0.414387 28.2612C0.0619123 27.8317 -0.0745297 27.2892 0.039172 26.758L1.82429 17.897V9.78206C0.744122 9.40908 0.00506146 8.39189 0.00506146 7.22776C0.00506146 5.93931 0.926045 4.82039 2.1995 4.57174L24.9398 0.0508599ZM12.7283 37.0317C13.9221 36.6474 15.207 37.0769 16.0711 37.9924L24.1439 46.5255C24.8602 47.2828 26.0768 47.2828 26.7932 46.5255L34.866 37.9924C35.7301 37.0769 37.0149 36.6474 38.2088 37.0317C45.5994 39.3938 50.9434 46.2656 50.9434 54.3919C50.9434 56.3132 49.3743 57.8616 47.4528 57.8616H3.4957C1.57414 57.8616 0.00506146 56.3019 0.00506146 54.3919C0.00506146 46.2656 5.34904 39.3938 12.7283 37.0317Z" fill="#213C51"/>
</svg>
