<svg width="46" height="53" viewBox="0 0 46 53" fill="none" xmlns="http://www.w3.org/2000/svg">
<path d="M10.2222 53V47.1111H20.4444V37.9833C18.3574 37.4435 16.4944 36.4257 14.8554 34.9299C13.2165 33.4342 12.0128 31.5566 11.2444 29.2972C8.05 28.8556 5.37774 27.2489 3.22767 24.4772C1.07759 21.7055 0.0017037 18.4538 0 14.7222V11.7778C0 10.1583 0.500889 8.77248 1.50267 7.62022C2.50444 6.46796 3.70726 5.89085 5.11111 5.88889H10.2222V0H35.7778V5.88889H40.8889C42.2944 5.88889 43.4981 6.466 44.4999 7.62022C45.5017 8.77444 46.0017 10.1603 46 11.7778V14.7222C46 18.4519 44.9241 21.7035 42.7723 24.4772C40.6206 27.2508 37.9483 28.8575 34.7556 29.2972C33.9889 31.5546 32.7861 33.4322 31.1471 34.9299C29.5081 36.4277 27.6443 37.4455 25.5556 37.9833V47.1111H35.7778V53H10.2222ZM10.2222 22.9667V11.7778H5.11111V14.7222C5.11111 16.587 5.57963 18.2683 6.51667 19.7661C7.4537 21.2638 8.68889 22.3307 10.2222 22.9667ZM35.7778 22.9667C37.3111 22.3287 38.5463 21.2609 39.4833 19.7631C40.4204 18.2654 40.8889 16.5851 40.8889 14.7222V11.7778H35.7778V22.9667Z" fill="#213C51"/>
</svg>
