<svg width="31" height="30" viewBox="0 0 31 30" fill="none" xmlns="http://www.w3.org/2000/svg">
<path d="M15.3382 24.5458L7.90282 29.025C7.57435 29.234 7.23094 29.3236 6.87261 29.2937C6.51428 29.2639 6.20074 29.1444 5.93199 28.9354C5.66324 28.7264 5.45421 28.4654 5.3049 28.1525C5.1556 27.8395 5.12574 27.4883 5.21532 27.099L7.18615 18.6333L0.601778 12.9448C0.303166 12.676 0.116833 12.3697 0.0427775 12.0257C-0.0312781 11.6817 -0.00918097 11.346 0.109069 11.0188C0.227319 10.6915 0.406486 10.4227 0.646569 10.2125C0.886652 10.0023 1.21512 9.8679 1.63199 9.80938L10.3216 9.04792L13.6809 1.075C13.8302 0.716667 14.062 0.447916 14.3761 0.26875C14.6903 0.0895831 15.011 0 15.3382 0C15.6655 0 15.9862 0.0895831 16.3004 0.26875C16.6145 0.447916 16.8462 0.716667 16.9955 1.075L20.3549 9.04792L29.0445 9.80938C29.4625 9.8691 29.791 10.0035 30.0299 10.2125C30.2688 10.4215 30.448 10.6903 30.5674 11.0188C30.6868 11.3472 30.7095 11.6835 30.6355 12.0275C30.5614 12.3715 30.3745 12.6772 30.0747 12.9448L23.4903 18.6333L25.4612 27.099C25.5507 27.4872 25.5209 27.8383 25.3716 28.1525C25.2223 28.4666 25.0132 28.7276 24.7445 28.9354C24.4757 29.1433 24.1622 29.2627 23.8039 29.2937C23.4455 29.3248 23.1021 29.2352 22.7737 29.025L15.3382 24.5458Z" fill="#213C51"/>
</svg>
